<svg width="64" height="64" viewBox="0 0 64 64" fill="none" xmlns="http://www.w3.org/2000/svg">
<path d="M27.378 9.00005C24.5294 8.99507 21.7187 9.65352 19.1687 10.9232C16.6187 12.1929 14.3994 14.039 12.6866 16.3152C10.9738 18.5914 9.81464 21.2352 9.30086 24.0372C8.78708 26.8391 8.93284 29.7221 9.72659 32.458C10.5203 35.1938 11.9403 37.7072 13.8739 39.799C15.8075 41.8909 18.2017 43.5037 20.8668 44.5098C23.5318 45.5158 26.3946 45.8875 29.2282 45.5952C32.0618 45.303 34.7884 44.3549 37.192 42.826L50.445 56.08L55.032 51.493L41.947 38.441C44.0272 35.7273 45.3057 32.4852 45.6376 29.0821C45.9696 25.679 45.3417 22.2509 43.8252 19.1864C42.3087 16.1218 39.9641 13.5433 37.0572 11.7429C34.1503 9.94255 30.7973 8.99238 27.378 9.00005ZM27.378 13.317C30.1527 13.317 32.8651 14.1398 35.1721 15.6814C37.4792 17.2229 39.2773 19.4139 40.3391 21.9774C41.401 24.5408 41.6788 27.3616 41.1375 30.083C40.5962 32.8043 39.26 35.3041 37.298 37.266C35.3361 39.228 32.8363 40.5642 30.115 41.1055C27.3936 41.6468 24.5728 41.369 22.0094 40.3072C19.4459 39.2453 17.2549 37.4472 15.7134 35.1401C14.1718 32.8331 13.349 30.1207 13.349 27.346C13.3452 25.5027 13.7055 23.6767 14.4091 21.9729C15.1128 20.2691 16.146 18.721 17.4495 17.4175C18.753 16.114 20.3011 15.0808 22.0049 14.3772C23.7087 13.6735 25.5347 13.3132 27.378 13.317Z" fill="#242841"/>
</svg>
