<svg width="64" height="64" viewBox="0 0 64 64" fill="none" xmlns="http://www.w3.org/2000/svg">
<path d="M15.679 13.002C15.1478 13.001 14.6285 13.1587 14.1875 13.4548C13.7465 13.751 13.404 14.172 13.2039 14.6641C13.0037 15.1561 12.9551 15.6967 13.0641 16.2165C13.1732 16.7364 13.435 17.2118 13.816 17.582L27.934 31.694L13.816 45.809C13.5683 46.0568 13.3718 46.3511 13.2377 46.6749C13.1037 46.9987 13.0348 47.3457 13.0349 47.6962C13.0351 48.4039 13.3164 49.0826 13.817 49.583C14.3176 50.0833 14.9964 50.3643 15.7042 50.3641C16.412 50.3639 17.0907 50.0826 17.591 49.582L31.705 35.465L45.816 49.582C46.0618 49.8375 46.3561 50.0415 46.6817 50.1819C47.0073 50.3223 47.3576 50.3964 47.7122 50.3999C48.0668 50.4033 48.4185 50.336 48.7467 50.2019C49.0749 50.0678 49.3731 49.8696 49.6239 49.6188C49.8746 49.3681 50.0728 49.0699 50.2069 48.7417C50.341 48.4134 50.4083 48.0617 50.4049 47.7072C50.4015 47.3526 50.3274 47.0023 50.1869 46.6767C50.0465 46.3511 49.8425 46.0568 49.587 45.811L35.476 31.694L49.591 17.582C49.8387 17.3341 50.0352 17.0398 50.1693 16.716C50.3033 16.3922 50.3722 16.0452 50.3721 15.6948C50.372 15.3443 50.3029 14.9973 50.1687 14.6736C50.0345 14.3498 49.8379 14.0557 49.59 13.808C49.3421 13.5602 49.0479 13.3637 48.7241 13.2297C48.4003 13.0957 48.0532 13.0267 47.7028 13.0268C47.3523 13.0269 47.0053 13.096 46.6816 13.2302C46.3579 13.3644 46.0637 13.5611 45.816 13.809L31.705 27.923L17.591 13.809C17.3425 13.5536 17.0454 13.3507 16.7172 13.212C16.389 13.0734 16.0363 13.002 15.68 13.002H15.679Z" fill="#242841"/>
</svg>
