<svg id="ic_caidat" xmlns="http://www.w3.org/2000/svg" width="24" height="24" viewBox="0 0 24 24">
  <rect id="Rectangle_183" data-name="Rectangle 183" width="24" height="24" fill="#fff" opacity="0"/>
  <g id="Group_5" data-name="Group 5" transform="translate(1.313 1.313)">
    <path id="Stroke_1" data-name="Stroke 1" d="M8.133,4.066A4.066,4.066,0,1,1,4.067,0,4.065,4.065,0,0,1,8.133,4.066Z" transform="translate(6.621 6.621)" fill="none"/>
    <path id="Subtraction_6" data-name="Subtraction 6" d="M13.11,20.334a.59.59,0,0,1-.558-.373,2.158,2.158,0,0,0-2.011-1.368H9.8a2.15,2.15,0,0,0-2.011,1.368.594.594,0,0,1-.558.373.641.641,0,0,1-.184-.028,10.561,10.561,0,0,1-1.835-.76.608.608,0,0,1-.283-.771,2.137,2.137,0,0,0-.454-2.385l-.525-.529a2.169,2.169,0,0,0-2.389-.455.58.58,0,0,1-.23.048.617.617,0,0,1-.538-.326,10.871,10.871,0,0,1-.763-1.835.614.614,0,0,1,.345-.745A2.175,2.175,0,0,0,1.74,10.542V9.793A2.147,2.147,0,0,0,.372,7.786a.609.609,0,0,1-.345-.741A10.8,10.8,0,0,1,.79,5.205a.606.606,0,0,1,.536-.326.578.578,0,0,1,.232.048,2.169,2.169,0,0,0,2.389-.455l.525-.529a2.146,2.146,0,0,0,.454-2.389A.6.6,0,0,1,5.209.787,10.561,10.561,0,0,1,7.043.028.641.641,0,0,1,7.227,0a.594.594,0,0,1,.558.373A2.148,2.148,0,0,0,9.8,1.738h.745A2.158,2.158,0,0,0,12.552.373.59.59,0,0,1,13.11,0a.641.641,0,0,1,.184.028,10.674,10.674,0,0,1,1.835.76.6.6,0,0,1,.283.767,2.152,2.152,0,0,0,.451,2.389l.528.529a2.169,2.169,0,0,0,2.389.455.578.578,0,0,1,.232-.048.606.606,0,0,1,.536.326,10.311,10.311,0,0,1,.759,1.839.6.6,0,0,1-.341.741A2.143,2.143,0,0,0,18.6,9.793v.749a2.143,2.143,0,0,0,1.368,2.007.606.606,0,0,1,.341.745,10.408,10.408,0,0,1-.759,1.835.617.617,0,0,1-.538.326.58.58,0,0,1-.23-.048,2.169,2.169,0,0,0-2.389.455l-.528.529a2.145,2.145,0,0,0-.451,2.385.607.607,0,0,1-.283.771,10.674,10.674,0,0,1-1.835.76A.652.652,0,0,1,13.11,20.334ZM10.167,6.1a4.066,4.066,0,1,0,4.069,4.066A4.071,4.071,0,0,0,10.167,6.1Z" transform="translate(0.52 0.52)" fill="#fff"/>
  </g>
  <style type="text/css" media="screen"> 
  path[stroke-width*='1.'] {
      vector-effect: non-scaling-stroke;
   }  
   @media (min-width: 40px) {
      path[stroke-width*='1.'] {
         stroke-width: 2 !important;
      }
   }
   @media screen and (min-width:0\0) and (min-width: 40px) {
      path[stroke-width*='1.'] {
         stroke-width: 1.1 !important;
      }
   }
   @supports (-ms-accelerator: true) or (-ms-ime-align: auto) {
      @media (min-width: 40px) {
         path[stroke-width*="1."] {
         stroke-width: 1.1 !important;
         }
      } 
   }
  </style>
</svg>
