<svg xmlns="http://www.w3.org/2000/svg" width="24" height="24" viewBox="0 0 24 24"><defs><style>.a{fill:rgba(0,0,0,0);}.b{fill:none;stroke:#fff;stroke-miterlimit:10;stroke-width:1.3px;}</style></defs><rect class="a" width="24" height="24"/><rect class="a" width="24" height="24"/><path class="b" d="M19.1,4.6h1.8V9.4H3.1V4.6H5"/><path class="b" d="M19.1,9.4h1.8V19.6a1,1,0,0,1-1,1H4.1a1,1,0,0,1-1-1V11.5"/><line class="b" y2="4.4" transform="translate(6.8 2.7)"/><line class="b" y2="4.4" transform="translate(10.3 2.7)"/><line class="b" y2="4.4" transform="translate(13.8 2.7)"/><line class="b" y2="4.4" transform="translate(17.3 2.7)"/><rect class="b" width="0.3" height="0.3" transform="translate(8.3 13.1)"/><rect class="b" width="0.3" height="0.3" transform="translate(11.8 13.1)"/><rect class="b" width="0.3" height="0.3" transform="translate(8.3 16.7)"/><rect class="b" width="0.3" height="0.3" transform="translate(11.8 16.7)"/><rect class="b" width="0.3" height="0.3" transform="translate(15.4 13.1)"/></svg>