<svg id="ic_lien-he" xmlns="http://www.w3.org/2000/svg" width="24" height="24" viewBox="0 0 24 24">
  <rect id="Rectangle_352" data-name="Rectangle 352" width="24" height="24" fill="#fff" opacity="0"/>
  <g id="Group" transform="translate(2 2.001)">
    <path id="Stroke_1" data-name="Stroke 1" d="M3.286,1.642A1.643,1.643,0,1,0,1.643,3.283,1.643,1.643,0,0,0,3.286,1.642Z" transform="translate(7.328 16.87)" fill="#fff" stroke="#fff" stroke-miterlimit="10" stroke-width="1.3"/>
    <path id="Stroke_3" data-name="Stroke 3" d="M16.961,6.843h2.152a1.375,1.375,0,0,1,1.375,1.375v2.621a1.375,1.375,0,0,1-1.375,1.375h-2.2V6.957A6.865,6.865,0,0,0,10.9.031a6.672,6.672,0,0,0-7.326,6.64v5.543h-2.2A1.376,1.376,0,0,1,0,10.839V8.218A1.376,1.376,0,0,1,1.375,6.843H3.528" fill="rgba(255,255,255,0)" stroke="#fff" stroke-miterlimit="10" stroke-width="2"/>
    <path id="Stroke_5" data-name="Stroke 5" d="M0,0S1.21,2.878,3.27,3.373" transform="translate(4.136 14.645)" fill="none" stroke="#fff" stroke-miterlimit="10" stroke-width="1.3"/>
    <rect id="Rectangle_351" data-name="Rectangle 351" width="3" height="5" transform="translate(17.35 7.345)" fill="#fff"/>
    <rect id="Rectangle_353" data-name="Rectangle 353" width="3" height="5" transform="translate(0.35 7.345)" fill="#fff"/>
  </g>
  <style type="text/css" media="screen"> 
  path[stroke-width*='1.'] {
      vector-effect: non-scaling-stroke;
   }  
   @media (min-width: 40px) {
      path[stroke-width*='1.'] {
         stroke-width: 2 !important;
      }
   }
   @media screen and (min-width:0\0) and (min-width: 40px) {
      path[stroke-width*='1.'] {
         stroke-width: 1.1 !important;
      }
   }
   @supports (-ms-accelerator: true) or (-ms-ime-align: auto) {
      @media (min-width: 40px) {
         path[stroke-width*="1."] {
         stroke-width: 1.1 !important;
         }
      } 
   }
  </style>
</svg>
