<svg id="ic_mo-tiet-kiem" xmlns="http://www.w3.org/2000/svg" width="24" height="24" viewBox="0 0 24 24">
  <g id="Rectangle_271" data-name="Rectangle 271" fill="#fff" stroke="#707070" stroke-width="1" opacity="0">
    <rect width="24" height="24" stroke="none"/>
    <rect x="0.5" y="0.5" width="23" height="23" fill="none"/>
  </g>
  <g id="white_38_x_38_11_" data-name="white_38_x_38 (11)" transform="translate(-0.594 -0.174)">
    <path id="Path_416" data-name="Path 416" d="M14.78,4.991A2.588,2.588,0,0,1,12.226,7.74,2.923,2.923,0,0,1,9.28,4.991V3.174h5.5V4.99Z" transform="translate(-1.711 0)" fill="none" stroke="#fff" stroke-width="1.36" fill-rule="evenodd"/>
    <path id="Path_417" data-name="Path 417" d="M3.315,20.212V16.405a7.388,7.388,0,0,1,13.9-3.486" transform="translate(-0.383 -1.301)" fill="none" stroke="#fff" stroke-width="1.36" fill-rule="evenodd"/>
    <path id="Path_418" data-name="Path 418" d="M17.707,23.75H2.93a1.338,1.338,0,0,1,0-2.676H5.418M9.4,18.813v1.062m0-6.98v1.062M8.1,17.346v.43a1.037,1.037,0,0,0,1.036,1.037h.531A1.037,1.037,0,0,0,10.7,17.776v-.289a.907.907,0,0,0-.579-.846l-1.446-.561a.909.909,0,0,1-.579-.847V15.02a1.037,1.037,0,0,1,1.036-1.037h.531A1.037,1.037,0,0,1,10.7,15.02" transform="translate(0 -2.164)" fill="none" stroke="#fff" stroke-width="1.36" fill-rule="evenodd"/>
    <path id="Path_419" data-name="Path 419" d="M23.03,19.61H21.2v1.83H19.83V19.61H18V18.241h1.831V16.411H21.2v1.831H23.03ZM20.515,13.4a5.524,5.524,0,1,0,5.525,5.525A5.524,5.524,0,0,0,20.515,13.4Z" transform="translate(-2.982 -2.276)" fill="#fff" fill-rule="evenodd"/>
  </g>
  <style type="text/css" media="screen"> 
  path[stroke-width*='1.'] {
      vector-effect: non-scaling-stroke;
   }  
   @media (min-width: 40px) {
      path[stroke-width*='1.'] {
         stroke-width: 2 !important;
      }
   }
   @media screen and (min-width:0\0) and (min-width: 40px) {
      path[stroke-width*='1.'] {
         stroke-width: 1.1 !important;
      }
   }
   @supports (-ms-accelerator: true) or (-ms-ime-align: auto) {
      @media (min-width: 40px) {
         path[stroke-width*="1."] {
         stroke-width: 1.1 !important;
         }
      } 
   }
  </style>
</svg>
