<svg xmlns="http://www.w3.org/2000/svg" width="181" height="52" viewBox="0 0 181 52">
  <g id="Group_2841" data-name="Group 2841" transform="translate(-11351 6437)">
    <g id="Rectangle_368" data-name="Rectangle 368" transform="translate(11351 -6437)" fill="#fff" stroke="#707070" stroke-width="1" opacity="0">
      <rect width="181" height="52" stroke="none"/>
      <rect x="0.5" y="0.5" width="180" height="51" fill="none"/>
    </g>
    <g id="logo-white-type-2" transform="translate(10876.789 -7421.287)">
      <g id="Group_1544" data-name="Group 1544" transform="translate(621.684 994.287)">
        <path id="Path_370" data-name="Path 370" d="M807.072,977.287c-2.355.475-3.217,1.538-3.133,3.068.118,2.148,2.492,6.246,3.626,8.073a50.2,50.2,0,0,0,6.935,8.726c2.115,2.078,3.435,2.529,5.694-.541a47.372,47.372,0,0,0,5.232-8.178,36.2,36.2,0,0,0,1.843-4.566c.594-1.968.377-3.71-1.554-4.993a4.963,4.963,0,0,1,2.8,4.413,15.875,15.875,0,0,1-.828,5.139,58.049,58.049,0,0,1-3.962,10.348,59.78,59.78,0,0,1-4.408,7.518c-3.5,4.792-6.855,3.243-10.79,0a40.92,40.92,0,0,1-6.948-7.5,57,57,0,0,1-5.728-10.378c-1.857-4.471-.413-6.759,1.879-8.211C800.247,978.611,804.02,977.706,807.072,977.287Z" transform="translate(-795.001 -976.978)" fill="#fff" fill-rule="evenodd"/>
        <path id="Path_371" data-name="Path 371" d="M828.97,986.245c3.421-.51,12.313-1.06,15.432.549a1.739,1.739,0,0,1,.969,2.093c.314-.561.619-1.142.913-1.747a33.988,33.988,0,0,0,1.731-4.289c.558-1.848.354-3.485-1.459-4.689l-.009,0a11.841,11.841,0,0,0-2.152-.81,32.753,32.753,0,0,0-6.629-1c-.946-.068-1.938-.062-2.942-.059a45.351,45.351,0,0,0-5.779.381c-2.211.446-3.021,1.444-2.942,2.882C826.2,981.271,827.831,984.319,828.97,986.245Z" transform="translate(-816.448 -976.287)" fill="#fff" fill-rule="evenodd"/>
      </g>
      <path id="Path_372" data-name="Path 372" d="M576.235,1096.079c1.9-.229,3.512-1.194,4.056-4.057a16.506,16.506,0,0,0-.218-6.506,3.88,3.88,0,0,0-1.131-1.921,5.2,5.2,0,0,0-6.079.144c-.207.166-.386.241-.386-.051l-.033-6.109-3.4.057.015,17.511c1.457.977,5.463,1.138,7.176.932Zm-91.148-.332c.715,0,.574.063,1.009-.531,2.955-4.035,5.75-12.637,5.711-17.437a15.207,15.207,0,0,0-4.158.5c-1.335,7.872-2.506,9.951-4.64,13.968h0c-2.134-4.017-3.3-6.1-4.64-13.968a15.2,15.2,0,0,0-4.158-.5c-.039,4.8,2.756,13.4,5.711,17.437.435.594.295.531,1.009.531Zm97.693-12.41.33,3.073c1.346-.128,2.446-.482,3.855-.581,2.126-.076,3.482-.128,3.415,1.406-1.589-.005-3.189,0-4.841.014-2,.017-3.667.966-3.446,5.019.266,4.867,6.069,4.51,8.72,2.558v1.093h3.081c-.081-4.969.281-10.189-.618-11.6-1.719-2.695-7.345-1.705-10.5-.981Zm-72.577,12q-.171-1.5-.342-3.008a29.779,29.779,0,0,1-5.19.562c-1.623-.054-2.227-.83-2.219-3.134a2.858,2.858,0,0,0,2.147,1c2.118.023,4.1.058,6.187-.019.093-3.836.426-7.181-3.42-8a11.464,11.464,0,0,0-5.121.113,3.714,3.714,0,0,0-2.9,2.859c-.873,3.008-.627,7.465,1.315,9.185,2.231,1.974,6.727,1.27,9.539.437Zm-6.194-9.621h1.7a1.543,1.543,0,0,1,1.542,1.536v.681h-4.784v-.681a1.544,1.544,0,0,1,1.543-1.536Zm108.672,10.178.106-5.633c.006-.345.315.117.4.256a23.427,23.427,0,0,0,3.82,4.942c.469.468.565.435,1.4.435h3.565a19.623,19.623,0,0,1-5.436-6.453c-.278-.6-.264-.531.134-1.09.516-.593,1.166-1.393,1.884-2.208l3.037-3.56c.015-.028.03-.056.043-.083H618.4c-.592,0-.572-.091-.989.358-1.23,1.323-2.64,2.869-3.777,4.119a2.711,2.711,0,0,1-.449.37c-.467.335-.383.245-.385-.234l-.03-9.568-3.44.024-.043,18.326Zm-79.863-.44-.3-2.988a24.581,24.581,0,0,1-4.843.369c-1.649-.185-1.852-1.052-1.868-2.387-.01-.808-.033-1.717.014-2.513.065-1.093.387-1.8,1.854-1.963a24.581,24.581,0,0,1,4.843.369l.3-2.988c-5.915-1.392-9.6-.7-10.43,3.869a20.445,20.445,0,0,0,.14,5c1.048,3.993,4.661,4.557,10.29,3.233Zm-18.567-12.763h-2.163q-.009,1.582-.019,3.165l2.182.015c0,1.07,0,2.205-.006,3.28,0,1.132-.013,2.193-.007,3.114a3.882,3.882,0,0,0,1.028,3.1,2.627,2.627,0,0,0,1.346.45,10.937,10.937,0,0,0,4.159-.293q-.055-1.359-.11-2.718c-1.33.132-2.96.418-2.957-.261,0-2.308,0-4.353,0-6.661l3.142-.013q0-1.578-.007-3.157l-3.133-.015q0-1.574,0-3.146l-3.46.006q0,1.569,0,3.139Zm-21.12,13.2,3.363.065.123-13.215-3.5.017.014,13.133Zm45.831-13.378h3.017a4.288,4.288,0,0,1,4.285,4.266v5.047a4.288,4.288,0,0,1-4.285,4.266h-3.017a4.288,4.288,0,0,1-4.285-4.266v-5.047a4.288,4.288,0,0,1,4.285-4.266Zm.659,3.2a1.544,1.544,0,0,0-1.542,1.536v4.1a1.544,1.544,0,0,0,1.542,1.536h1.7a1.544,1.544,0,0,0,1.542-1.536v-4.1a1.543,1.543,0,0,0-1.542-1.536Zm12.259,10.176q.046-5.05.094-10.1l2.526,0a1.242,1.242,0,0,1,1.332,1.15v.465l.009,8.489h3.394l.094-10.11,2.771,0a1.2,1.2,0,0,1,1.351,1.237l.012,8.877h3.363l.115-9.547c.025-2.031-1.1-3.709-3.408-3.687l-2.2.02a2.843,2.843,0,0,0-2.374.915c-.51.528-.262.532-.727.039a3.215,3.215,0,0,0-2.54-.971h-1.551a3.023,3.023,0,0,0-2.251,1.046c-.563.566-.5.754-.5-.134v-.827h0l-2.892.014q.007,6.566.014,13.133Zm47.613,0q.047-5.05.1-10.1l2.563,0A1.238,1.238,0,0,1,603.5,1087q0,4.441.009,8.883h3.443q.042-4.417.084-8.833c.022-2.333-.9-4.4-3.677-4.4h-1.573a3.043,3.043,0,0,0-2.214.978c-.589.567-.573.878-.573-.026v-.877l-2.94,0c0,4.377.015,8.777.02,13.154Zm-12.793-5.693h3.747v1.95c0,.809-2.367.844-3.872.81-1.1-.025-.973,0-1.021-.973-.018-.363,0-.726,0-1.091,0-.747.154-.7,1.148-.7Zm-9.759-2.355v3.624A1.544,1.544,0,0,1,575.4,1093h-1.736c-1.211,0-1.22.016-1.22-1.7v-3.892c0-1.718.009-1.7,1.22-1.7H575.4a1.544,1.544,0,0,1,1.542,1.536Z" transform="translate(0 -69.937)" fill="#fff" fill-rule="evenodd"/>
    </g>
  </g>
</svg>
