<svg xmlns="http://www.w3.org/2000/svg" width="30" height="30" viewBox="0 0 30 30">
    <g fill="none" fill-rule="evenodd">
        <g stroke="#FFF" stroke-width="1.3">
            <g>
                <g>
                    <g>
                        <path d="M14.82 19.447v3.514c0 .813-.663 1.475-1.478 1.475h0-11.59c-.817 0-1.478-.662-1.478-1.475V1.752C.274.935.934.275 1.751.275h11.591c.815 0 1.477.66 1.477 1.477v3.9M8.656 20.932L7.547 20.932 6.439 20.932 7.547 20.932z" transform="translate(-60 -382) translate(50 373) translate(10 9) translate(3.947 2.763)"/>
                        <path d="M21.93 12.355c0 3.927-3.184 7.11-7.11 7.11-3.929 0-7.11-3.183-7.11-7.11 0-3.926 3.181-7.11 7.11-7.11 3.926 0 7.11 3.184 7.11 7.11M14.787 8.341L14.787 9.846M14.787 14.703L14.787 16.369" transform="translate(-60 -382) translate(50 373) translate(10 9) translate(3.947 2.763)"/>
                        <path d="M12.687 14.703h3.096c.67 0 1.214-.544 1.214-1.214 0-.67-.545-1.214-1.214-1.214h-1.926c-.671 0-1.214-.544-1.214-1.215 0-.67.543-1.214 1.214-1.214h3.038" transform="translate(-60 -382) translate(50 373) translate(10 9) translate(3.947 2.763)"/>
                    </g>
                </g>
            </g>
        </g>
    </g>
</svg>
