<svg id="ic_thoat" xmlns="http://www.w3.org/2000/svg" width="24" height="24" viewBox="0 0 24 24">
  <rect id="Rectangle_184" data-name="Rectangle 184" width="24" height="24" fill="#fff" opacity="0"/>
  <path id="Path_670" data-name="Path 670" d="M114.894,543.054a10.534,10.534,0,1,0,10.535,10.535v0A10.534,10.534,0,0,0,114.894,543.054Zm-1,3.01h2v6.225h-2Zm7.865,10.078a7.528,7.528,0,0,1-6.877,4.484,7.495,7.495,0,0,1-6.9-4.6,6.87,6.87,0,0,1,2.134-7.846l1.247,1.564a4.865,4.865,0,0,0-1.523,5.543,5.495,5.495,0,0,0,10.079.077,4.848,4.848,0,0,0-1.4-5.544l1.282-1.535A6.851,6.851,0,0,1,121.761,556.142Z" transform="translate(-102.962 -541.555)" fill="#fff"/>
  <style type="text/css" media="screen"> 
  path[stroke-width*='1.'] {
      vector-effect: non-scaling-stroke;
   }  
   @media (min-width: 40px) {
      path[stroke-width*='1.'] {
         stroke-width: 2 !important;
      }
   }
   @media screen and (min-width:0\0) and (min-width: 40px) {
      path[stroke-width*='1.'] {
         stroke-width: 1.1 !important;
      }
   }
   @supports (-ms-accelerator: true) or (-ms-ime-align: auto) {
      @media (min-width: 40px) {
         path[stroke-width*="1."] {
         stroke-width: 1.1 !important;
         }
      } 
   }
  </style>
</svg>
